<svg width="21" height="20" viewBox="0 0 21 20" fill="none" xmlns="http://www.w3.org/2000/svg">
<path d="M20.447 7.179C20.318 6.801 19.977 6.534 19.579 6.503L13.878 6.05L11.411 0.589C11.25 0.23 10.893 0 10.5 0C10.107 0 9.74998 0.23 9.58898 0.588L7.12198 6.05L1.42098 6.503C1.02998 6.534 0.692979 6.791 0.559979 7.16C0.426979 7.529 0.520979 7.942 0.801979 8.216L5.01498 12.323L3.52498 18.775C3.43298 19.174 3.59398 19.589 3.93098 19.822C4.10298 19.94 4.30098 20 4.49998 20C4.69298 20 4.88698 19.944 5.05498 19.832L10.5 16.202L15.945 19.832C16.293 20.064 16.75 20.055 17.09 19.808C17.428 19.561 17.577 19.128 17.462 18.726L15.633 12.326L20.169 8.244C20.466 7.976 20.575 7.558 20.447 7.179Z" fill="#FF5029"/>
</svg>
